<svg width="64" height="64" viewBox="0 0 64 64" fill="none" xmlns="http://www.w3.org/2000/svg">
  <title>Personal Diary logo</title>
  <defs>
    <linearGradient id="coverGradient" x1="12" y1="8" x2="52" y2="56" gradientUnits="userSpaceOnUse">
      <stop offset="0" stop-color="#F8B4D9" />
      <stop offset="1" stop-color="#8B5CF6" />
    </linearGradient>
    <linearGradient id="pageGradient" x1="20" y1="14" x2="44" y2="50" gradientUnits="userSpaceOnUse">
      <stop offset="0" stop-color="#FFFFFF" stop-opacity="0.95" />
      <stop offset="1" stop-color="#E2E8F0" stop-opacity="0.9" />
    </linearGradient>
    <linearGradient id="bookmarkGradient" x1="40" y1="12" x2="40" y2="42" gradientUnits="userSpaceOnUse">
      <stop offset="0" stop-color="#F472B6" />
      <stop offset="1" stop-color="#DB2777" />
    </linearGradient>
    <linearGradient id="highlight" x1="24" y1="20" x2="24" y2="44" gradientUnits="userSpaceOnUse">
      <stop offset="0" stop-color="#CBD5F5" stop-opacity="0.65" />
      <stop offset="1" stop-color="#A5B4FC" stop-opacity="0" />
    </linearGradient>
    <filter id="softShadow" x="8" y="6" width="48" height="56" filterUnits="userSpaceOnUse" color-interpolation-filters="sRGB">
      <feDropShadow dx="0" dy="4" stdDeviation="4" flood-color="rgba(15,23,42,0.18)" />
    </filter>
  </defs>
  <g filter="url(#softShadow)">
    <rect x="12" y="10" width="40" height="48" rx="8" fill="url(#coverGradient)" />
    <rect x="18" y="14" width="28" height="40" rx="6" fill="url(#pageGradient)" />
    <path d="M40 12L40 36" stroke="url(#bookmarkGradient)" stroke-width="6" stroke-linecap="round" />
    <path d="M26 24C27.7 22.2 30.5 22.2 32.2 24C33.6 25.6 34.3 29.1 31 32.2L29 34.1L27 32.2C23.8 29.1 24.4 25.6 25.8 24Z" fill="#F472B6" />
    <path d="M22 34H36" stroke="#CBD5F5" stroke-width="1.6" stroke-linecap="round" />
    <path d="M22 39H36" stroke="#CBD5F5" stroke-width="1.6" stroke-linecap="round" />
    <path d="M22 29H24.5" stroke="#CBD5F5" stroke-width="1.6" stroke-linecap="round" />
    <rect x="18" y="14" width="6" height="40" rx="6" fill="url(#highlight)" />
  </g>
</svg>
